<?xml version="1.0" encoding="UTF-8"?>
<svg width="2265px" height="2267px" viewBox="0 0 2265 2267" version="1.1" xmlns="http://www.w3.org/2000/svg" xmlns:xlink="http://www.w3.org/1999/xlink">
    <!-- Generator: Sketch 43.1 (39012) - http://www.bohemiancoding.com/sketch -->
    <title>logo</title>
    <desc>Created with Sketch.</desc>
    <defs></defs>
    <g id="Page-1" stroke="none" stroke-width="1" fill="none" fill-rule="evenodd">
        <g id="logo" fill-rule="nonzero" fill="#F3AE2D">
            <path d="M48,2259 C-8,2231 -17,2145 32,2114 C45,2106 115,2085 188,2069 C505,1998 790,1857 968,1684 L1025,1629 L971,1540 C911,1440 858,1312 827,1189 C726,795 807,234 988,67 C1137,-70 1319,11 1411,256 C1471,416 1488,539 1489,798 C1490,1093 1469,1205 1377,1410 L1347,1477 L1309,1440 C1288,1420 1261,1387 1249,1367 L1227,1331 L1251,1267 C1297,1145 1318,1028 1325,869 C1338,570 1277,288 1180,198 C1155,175 1147,173 1124,184 C1043,221 971,451 955,721 C924,1261 1178,1689 1670,1927 C1793,1986 1960,2043 2112,2075 C2238,2102 2264,2120 2265,2181 C2266,2231 2233,2264 2180,2264 C2124,2264 1960,2224 1819,2177 C1587,2099 1371,1977 1222,1839 L1145,1768 L1050,1849 C853,2017 637,2130 361,2209 C187,2259 79,2277 48,2261 L48,2259 Z" id="Shape"></path>
        </g>
    </g>
</svg>